<svg id="Outlined_Artwork" data-name="Outlined Artwork" xmlns="http://www.w3.org/2000/svg" viewBox="0 0 855 855"><defs><style>.cls-1{fill:#51a546;}.cls-2{fill:#412947;}</style></defs><title>ic_dial</title><path class="cls-1" d="M427.5,855A427.6,427.6,0,0,1,261.09,33.61,427.6,427.6,0,0,1,593.91,821.39,424.83,424.83,0,0,1,427.5,855Zm0-800A372.46,372.46,0,0,0,164.13,690.87,372.46,372.46,0,0,0,690.87,164.13,370,370,0,0,0,427.5,55Z"/><path class="cls-2" d="M572.57,592.58a20,20,0,0,1-14.16-34.16c72.19-72.19,72.19-189.65,0-261.84s-189.64-72.18-261.83,0-72.18,189.65,0,261.84a20,20,0,0,1-28.3,28.3,225.17,225.17,0,1,1,318.44,0A19.94,19.94,0,0,1,572.57,592.58Z"/><circle class="cls-1" cx="427.5" cy="427.5" r="44.1"/><path class="cls-2" d="M317.29,337.3a19.93,19.93,0,0,1-14.15-5.86l-34.09-34.08a20,20,0,0,1,28.31-28.31l34.08,34.09a20,20,0,0,1-14.15,34.16Z"/><path class="cls-2" d="M271.64,447.52h-48.2a20,20,0,0,1,0-40h48.2a20,20,0,0,1,0,40Z"/><path class="cls-2" d="M283.21,591.81a20,20,0,0,1-14.16-34.17l34.09-34.08a20,20,0,0,1,28.3,28.3L297.36,586A20,20,0,0,1,283.21,591.81Z"/><path class="cls-2" d="M571.79,591.81A20,20,0,0,1,557.64,586l-34.08-34.09a20,20,0,0,1,28.3-28.3L586,557.64a20,20,0,0,1-14.16,34.17Z"/><path class="cls-2" d="M631.56,447.52h-48.2a20,20,0,0,1,0-40h48.2a20,20,0,1,1,0,40Z"/><path class="cls-2" d="M537.71,337.3a20,20,0,0,1-14.15-34.16l34.08-34.09A20,20,0,1,1,586,297.36l-34.09,34.08A19.93,19.93,0,0,1,537.71,337.3Z"/><path class="cls-2" d="M427.5,291.65a20,20,0,0,1-20-20v-48.2a20,20,0,0,1,40,0v48.2A20,20,0,0,1,427.5,291.65Z"/><path class="cls-1" d="M444.07,449.2,405.4,410.53,506,343.81c3.76-3,8.67,1.95,5.6,5.66Z"/></svg>