<svg id="Outlined_Artwork" data-name="Outlined Artwork" xmlns="http://www.w3.org/2000/svg" viewBox="0 0 855 855"><defs><style>.cls-1{fill:#51a546;}.cls-2{fill:#412947;}.cls-3{fill:none;}</style></defs><title>ic_code</title><path class="cls-1" d="M427.5,855A427.6,427.6,0,0,1,261.09,33.61,427.6,427.6,0,0,1,593.91,821.39,424.83,424.83,0,0,1,427.5,855Zm0-800A372.46,372.46,0,0,0,164.13,690.87,372.46,372.46,0,0,0,690.87,164.13,370,370,0,0,0,427.5,55Z"/><path class="cls-2" d="M469,546.45v4.24a10,10,0,0,1-10,10H396a10,10,0,0,1-10-10v-4.24H182.82v6a40,40,0,0,0,40,40h409.3a40,40,0,0,0,40-40v-6Z"/><rect class="cls-3" x="237.86" y="302.54" width="379.27" height="243.9"/><path class="cls-2" d="M657.17,302.54a40,40,0,0,0-40-40H237.86a40,40,0,0,0-40,40V546.45h40V302.54H617.14V546.45h40Z"/><path class="cls-1" d="M371.46,494.63a20,20,0,0,1-14.16-5.86l-49.53-49.54a20,20,0,0,1,0-28.3l49.53-49.54a20,20,0,1,1,28.31,28.31l-35.38,35.38,35.38,35.39a20,20,0,0,1-14.15,34.16Z"/><path class="cls-1" d="M483.54,494.63a20,20,0,0,1-14.15-34.16l35.38-35.39L469.39,389.7a20,20,0,1,1,28.31-28.31l49.53,49.54a20,20,0,0,1,0,28.3L497.7,488.77A20,20,0,0,1,483.54,494.63Z"/></svg>