<svg id="Outlined_Artwork" data-name="Outlined Artwork" xmlns="http://www.w3.org/2000/svg" viewBox="0 0 855 855"><defs><style>.cls-1{fill:#51a546;}.cls-2{fill:#412947;}</style></defs><title>ic_data_vis</title><path class="cls-1" d="M427.5,855A427.6,427.6,0,0,1,261.09,33.61,427.6,427.6,0,0,1,593.91,821.39,424.83,424.83,0,0,1,427.5,855Zm0-800A372.46,372.46,0,0,0,164.13,690.87,372.46,372.46,0,0,0,690.87,164.13,370,370,0,0,0,427.5,55Z"/><path class="cls-2" d="M592.93,242.62H262.07a40,40,0,0,0-40,40V489.81a40,40,0,0,0,40,40H592.93a40,40,0,0,0,40-40V282.62A40,40,0,0,0,592.93,242.62Zm0,247.16H262.1V282.65H592.9Z"/><rect class="cls-2" x="344.4" y="584.86" width="166.2" height="27.52"/><rect class="cls-2" x="377.46" y="549.82" width="100.08" height="37.53"/><circle class="cls-1" cx="319.92" cy="439.6" r="11.26"/><circle class="cls-1" cx="360.49" cy="461.59" r="11.26"/><circle class="cls-1" cx="344.4" cy="398.32" r="11.26"/><circle class="cls-1" cx="371.75" cy="394.48" r="11.26"/><circle class="cls-1" cx="371.75" cy="428.34" r="11.26"/><circle class="cls-1" cx="416.24" cy="442.84" r="11.26"/><circle class="cls-1" cx="300.2" cy="461.59" r="11.26"/><circle class="cls-1" cx="394.27" cy="373.2" r="11.26"/><circle class="cls-1" cx="461.27" cy="328.17" r="11.26"/><circle class="cls-1" cx="427.5" cy="342.34" r="11.26"/><circle class="cls-1" cx="427.5" cy="409.57" r="11.26"/><circle class="cls-1" cx="438.76" cy="373.2" r="11.26"/><circle class="cls-1" cx="466.28" cy="427.5" r="11.26"/><circle class="cls-1" cx="483.25" cy="394.48" r="11.26"/><circle class="cls-1" cx="483.25" cy="350.68" r="11.26"/><circle class="cls-1" cx="521.86" cy="371.96" r="11.26"/><circle class="cls-1" cx="499.34" cy="316.91" r="11.26"/><circle class="cls-1" cx="551.47" cy="311.51" r="11.26"/><circle class="cls-1" cx="533.12" cy="339.42" r="11.26"/></svg>