<svg id="Outlined_Artwork" data-name="Outlined Artwork" xmlns="http://www.w3.org/2000/svg" viewBox="0 0 855 855"><defs><style>.cls-1{fill:#51a546;}.cls-2{fill:#412947;}</style></defs><title>ic_wrench_maintain</title><path class="cls-1" d="M427.5,855A427.6,427.6,0,0,1,261.09,33.61,427.6,427.6,0,0,1,593.91,821.39,424.83,424.83,0,0,1,427.5,855Zm0-800A372.46,372.46,0,0,0,164.13,690.87,372.46,372.46,0,0,0,690.87,164.13,370,370,0,0,0,427.5,55Z"/><path class="cls-1" d="M454.7,413.87a8.38,8.38,0,0,1-2.26-7.76,70.78,70.78,0,0,0-20.2-67,75.85,75.85,0,0,0-52.63-20.52,8.39,8.39,0,0,0-5.87,14.32l29.78,29.78a8.41,8.41,0,0,1,2.29,7.58L399.28,403a8.39,8.39,0,0,1-6.58,6.58L360,416.07a8.41,8.41,0,0,1-7.58-2.29L322.63,384a8.39,8.39,0,0,0-14.32,5.87,75.83,75.83,0,0,0,20.53,52.64c17.73,17.73,43.43,24.29,66.79,19.69a8.34,8.34,0,0,1,7.51,2.31l81.15,81.14a131.56,131.56,0,0,0,54-48.16Z"/><path class="cls-2" d="M583.29,311.46H526.68a15,15,0,0,1,0-30h41.6v-41.6a15,15,0,1,1,30,0v56.62A15,15,0,0,1,583.29,311.46Z"/><path class="cls-2" d="M271.71,630.18a15,15,0,0,1-15-15V558.55a15,15,0,0,1,15-15h56.61a15,15,0,0,1,0,30h-41.6v41.61A15,15,0,0,1,271.71,630.18Z"/><path class="cls-2" d="M237,522.16a20,20,0,0,1-18.57-12.54A223.7,223.7,0,0,1,425.86,202.19h0A222.21,222.21,0,0,1,584,267.7,20,20,0,1,1,555.72,296c-71.6-71.6-188.11-71.6-259.71,0a183.44,183.44,0,0,0-40.45,198.64A20,20,0,0,1,237,522.16Z"/><path class="cls-2" d="M429.14,652.81A222.2,222.2,0,0,1,271,587.29,20,20,0,1,1,299.29,559c71.6,71.6,188.1,71.6,259.7,0a183.44,183.44,0,0,0,40.45-198.64,20,20,0,1,1,37.12-15A223.7,223.7,0,0,1,429.14,652.81Z"/></svg>